<svg width="16" height="16" viewBox="0 0 16 16" fill="none" xmlns="http://www.w3.org/2000/svg">
<g clip-path="url(#clip0_502_5405)">
<path d="M4.33333 1.29357e-05C1.944 1.29357e-05 0 1.94401 0 4.33335C0 6.72268 1.944 8.66668 4.33333 8.66668C6.72267 8.66668 8.66667 6.72268 8.66667 4.33335C8.66667 1.94401 6.72267 1.29357e-05 4.33333 1.29357e-05ZM4.33333 8.00001C2.31133 8.00001 0.666667 6.35468 0.666667 4.33335C0.666667 2.31201 2.31133 0.66668 4.33333 0.66668C6.35533 0.66668 8 2.31201 8 4.33335C8 6.35468 6.35533 8.00001 4.33333 8.00001ZM16 4.33335V6.33335C16 6.51735 15.8507 6.66668 15.6667 6.66668C15.4827 6.66668 15.3333 6.51735 15.3333 6.33335V4.33335C15.3333 3.41401 14.5853 2.66668 13.6667 2.66668H10.8673L12.2407 4.10268C12.368 4.23601 12.3633 4.44735 12.23 4.57401C12.1653 4.63601 12.082 4.66668 11.9993 4.66668C11.9113 4.66668 11.824 4.63201 11.7587 4.56401L10.28 3.01735C10.1013 2.83868 10 2.59401 10 2.33401C10 2.07401 10.1013 1.82868 10.2853 1.64535L11.7593 0.10268C11.886 -0.0306537 12.0967 -0.0353204 12.2307 0.0920129C12.3633 0.21868 12.3687 0.430013 12.2413 0.563346L10.868 1.99935H13.6667C14.9533 1.99935 16 3.04668 16 4.33335ZM14.9893 8.74001L12.9893 7.59601C12.3773 7.24668 11.616 7.24601 11.004 7.59735L9.00667 8.73935C8.38533 9.09401 7.99933 9.75935 7.99933 10.4753V12.8993C7.99933 13.6153 8.38533 14.2807 9.00667 14.6353L11.004 15.7787C11.3107 15.954 11.654 16.0413 11.9973 16.0413C12.3407 16.0413 12.6833 15.954 12.9893 15.7787L14.9893 14.6353C15.6107 14.2807 15.9967 13.6153 15.9967 12.8993V10.4753C15.9967 9.75935 15.6107 9.09468 14.9893 8.74001ZM9.33733 9.31801L11.3347 8.17601C11.5393 8.05868 11.768 8.00001 11.9973 8.00001C12.2267 8.00001 12.4547 8.05868 12.6587 8.17468L14.6587 9.31868C14.7887 9.39268 14.896 9.49201 14.992 9.60135L12 11.284L9.00533 9.60001C9.10067 9.49068 9.208 9.39201 9.33733 9.31735V9.31801ZM9.33733 14.056C8.92333 13.82 8.666 13.376 8.666 12.8993V10.4753C8.666 10.3793 8.68333 10.2867 8.70333 10.1953L11.666 11.8613V15.332C11.5513 15.3027 11.4393 15.2593 11.3347 15.2L9.33733 14.056ZM15.33 12.8993C15.33 13.3767 15.0727 13.82 14.6587 14.0567L12.6587 15.1993C12.5553 15.2587 12.4453 15.302 12.3327 15.3313V11.8613L15.2927 10.1973C15.3127 10.2887 15.33 10.3807 15.33 10.476V12.8993ZM6.35867 5.44601C6.35867 6.11868 5.82533 6.66601 5.17 6.66601H4.666V6.99935C4.666 7.18335 4.51667 7.33268 4.33267 7.33268C4.14867 7.33268 3.99933 7.18335 3.99933 6.99935V6.66601H3.49467C2.95 6.66601 2.476 6.28801 2.34267 5.74535C2.29867 5.56668 2.408 5.38601 2.58667 5.34268C2.76533 5.30068 2.946 5.40801 2.99 5.58668C3.05 5.82935 3.25733 5.99935 3.49467 5.99935H5.17C5.458 5.99935 5.692 5.75135 5.692 5.44601C5.692 5.19868 5.53533 4.97935 5.31067 4.91268L3.248 4.39601C2.72867 4.24268 2.37533 3.76001 2.37533 3.21935C2.37533 2.54668 2.90867 1.99935 3.564 1.99935H3.99933V1.66601C3.99933 1.48201 4.14867 1.33268 4.33267 1.33268C4.51667 1.33268 4.666 1.48201 4.666 1.66601V1.99935H5.17067C5.71533 1.99935 6.18933 2.37735 6.32267 2.92001C6.36667 3.09868 6.25733 3.27935 6.07867 3.32268C5.90133 3.36668 5.71933 3.25735 5.67533 3.07868C5.61533 2.83601 5.408 2.66601 5.17067 2.66601H3.56333C3.27533 2.66601 3.04133 2.91401 3.04133 3.21935C3.04133 3.46668 3.198 3.68601 3.42267 3.75268L5.48533 4.26935C6.00467 4.42268 6.358 4.90535 6.358 5.44601H6.35867ZM5.71933 12.9827C5.898 13.1613 5.99933 13.406 5.99933 13.666C5.99933 13.926 5.898 14.1713 5.714 14.3547L4.24067 15.896C4.17533 15.9647 4.088 15.9987 4 15.9987C3.91667 15.9987 3.834 15.968 3.76933 15.906C3.63667 15.7793 3.63133 15.568 3.75867 15.4347L5.132 13.9987H2.33333C1.04667 13.9987 0 12.952 0 11.6653V9.66535C0 9.48135 0.149333 9.33201 0.333333 9.33201C0.517333 9.33201 0.666667 9.48135 0.666667 9.66535V11.6653C0.666667 12.5847 1.41467 13.332 2.33333 13.332H5.13267L3.75933 11.896C3.632 11.7627 3.63667 11.5513 3.77 11.4247C3.904 11.2973 4.11467 11.302 4.24133 11.4353L5.72 12.982L5.71933 12.9827Z" fill="#C3C4C6"/>
</g>
<defs>
<clipPath id="clip0_502_5405">
<rect width="16" height="16" fill="white"/>
</clipPath>
</defs>
</svg>
