<svg width="26" height="26" viewBox="0 0 26 26" fill="none" xmlns="http://www.w3.org/2000/svg">
<rect width="26" height="26" rx="13" fill="#00A2C1"/>
<path d="M11.2627 7.55556L9.66274 9.11111H6.6V18.4444H19.4V9.11111H16.3373L14.7373 7.55556H11.2627ZM10.6 6H15.4L17 7.55556H20.2C20.6418 7.55556 21 7.90378 21 8.33333V19.2222C21 19.6518 20.6418 20 20.2 20H5.8C5.35818 20 5 19.6518 5 19.2222V8.33333C5 7.90378 5.35818 7.55556 5.8 7.55556H9L10.6 6ZM13 17.6667C10.5699 17.6667 8.6 15.7515 8.6 13.3889C8.6 11.0263 10.5699 9.11111 13 9.11111C15.4301 9.11111 17.4 11.0263 17.4 13.3889C17.4 15.7515 15.4301 17.6667 13 17.6667ZM13 16.1111C14.5464 16.1111 15.8 14.8923 15.8 13.3889C15.8 11.8854 14.5464 10.6667 13 10.6667C11.4536 10.6667 10.2 11.8854 10.2 13.3889C10.2 14.8923 11.4536 16.1111 13 16.1111Z" fill="#F4F5F7"/>
</svg>
