<svg width="34" height="34" viewBox="0 0 34 34" fill="none" xmlns="http://www.w3.org/2000/svg">
<g filter="url(#filter0_d_249_497)">
<rect x="5" y="1" width="24" height="24" rx="12" fill="#FEFEFE"/>
<rect x="5" y="1" width="24" height="24" rx="12" stroke="#F4F5F7" stroke-width="2"/>
</g>
<path d="M15.4674 8.05886L14.0556 9.47062H11.3532V17.9412H22.6473V9.47062H19.9449L18.5331 8.05886H15.4674ZM14.8826 6.64709H19.1179L20.5296 8.05886H23.3532C23.743 8.05886 24.0591 8.3749 24.0591 8.76474V18.6471C24.0591 19.037 23.743 19.353 23.3532 19.353H10.6473C10.2574 19.353 9.94141 19.037 9.94141 18.6471V8.76474C9.94141 8.3749 10.2574 8.05886 10.6473 8.05886H13.4708L14.8826 6.64709ZM17.0002 17.2353C14.8561 17.2353 13.1179 15.4972 13.1179 13.353C13.1179 11.2088 14.8561 9.47062 17.0002 9.47062C19.1444 9.47062 20.8826 11.2088 20.8826 13.353C20.8826 15.4972 19.1444 17.2353 17.0002 17.2353ZM17.0002 15.8236C18.3647 15.8236 19.4708 14.7174 19.4708 13.353C19.4708 11.9885 18.3647 10.8824 17.0002 10.8824C15.6358 10.8824 14.5296 11.9885 14.5296 13.353C14.5296 14.7174 15.6358 15.8236 17.0002 15.8236Z" fill="#00A2C1"/>
<defs>
<filter id="filter0_d_249_497" x="0" y="0" width="34" height="34" filterUnits="userSpaceOnUse" color-interpolation-filters="sRGB">
<feFlood flood-opacity="0" result="BackgroundImageFix"/>
<feColorMatrix in="SourceAlpha" type="matrix" values="0 0 0 0 0 0 0 0 0 0 0 0 0 0 0 0 0 0 127 0" result="hardAlpha"/>
<feOffset dy="4"/>
<feGaussianBlur stdDeviation="2"/>
<feComposite in2="hardAlpha" operator="out"/>
<feColorMatrix type="matrix" values="0 0 0 0 0.395833 0 0 0 0 0.395833 0 0 0 0 0.395833 0 0 0 0.25 0"/>
<feBlend mode="normal" in2="BackgroundImageFix" result="effect1_dropShadow_249_497"/>
<feBlend mode="normal" in="SourceGraphic" in2="effect1_dropShadow_249_497" result="shape"/>
</filter>
</defs>
</svg>
