<svg width="56" height="57" viewBox="0 0 56 57" fill="none" xmlns="http://www.w3.org/2000/svg">
<g filter="url(#filter0_d_239_338)">
<rect x="4" y="4" width="48" height="49" rx="24" fill="#404141"/>
<path d="M40 32.6667V41H32C30.5971 40.9985 29.2192 40.6127 28.0047 39.8814C26.7901 39.1501 25.7815 38.0989 25.08 36.8333C25.8339 36.8277 26.5852 36.7411 27.322 36.575C27.8832 37.3059 28.595 37.8959 29.4048 38.3012C30.2146 38.7066 31.1016 38.9169 32 38.9167H38V32.6667C37.9998 31.7305 37.7972 30.8063 37.4074 29.9627C37.0175 29.1192 36.4504 28.3779 35.748 27.7937C35.9088 27.0264 35.9933 26.2438 36 25.4583C37.215 26.189 38.2241 27.2396 38.9262 28.5048C39.6282 29.77 39.9986 31.2053 40 32.6667ZM34 25.375C34 22.8886 33.0518 20.504 31.364 18.7459C29.6761 16.9877 27.3869 16 25 16C22.6131 16 20.3239 16.9877 18.636 18.7459C16.9482 20.504 16 22.8886 16 25.375V34.75H25C27.3861 34.7472 29.6738 33.7586 31.361 32.0011C33.0483 30.2435 33.9974 27.8606 34 25.375ZM18 25.375C18 23.9328 18.4105 22.5231 19.1797 21.324C19.9489 20.1249 21.0421 19.1903 22.3212 18.6384C23.6003 18.0865 25.0078 17.9421 26.3656 18.2234C27.7235 18.5048 28.9708 19.1993 29.9497 20.219C30.9287 21.2388 31.5954 22.538 31.8655 23.9525C32.1356 25.3669 31.997 26.833 31.4672 28.1654C30.9373 29.4978 30.0401 30.6366 28.889 31.4378C27.7378 32.239 26.3845 32.6667 25 32.6667H18V25.375Z" fill="#F4F5F7"/>
</g>
<defs>
<filter id="filter0_d_239_338" x="0" y="0" width="56" height="57" filterUnits="userSpaceOnUse" color-interpolation-filters="sRGB">
<feFlood flood-opacity="0" result="BackgroundImageFix"/>
<feColorMatrix in="SourceAlpha" type="matrix" values="0 0 0 0 0 0 0 0 0 0 0 0 0 0 0 0 0 0 127 0" result="hardAlpha"/>
<feOffset/>
<feGaussianBlur stdDeviation="2"/>
<feComposite in2="hardAlpha" operator="out"/>
<feColorMatrix type="matrix" values="0 0 0 0 0 0 0 0 0 0 0 0 0 0 0 0 0 0 0.1 0"/>
<feBlend mode="normal" in2="BackgroundImageFix" result="effect1_dropShadow_239_338"/>
<feBlend mode="normal" in="SourceGraphic" in2="effect1_dropShadow_239_338" result="shape"/>
</filter>
</defs>
</svg>
