<svg width="25" height="24" viewBox="0 0 25 24" fill="none" xmlns="http://www.w3.org/2000/svg">
<path d="M12.5 0C5.60729 0 0 5.383 0 12C0 18.617 5.60729 24 12.5 24H25V12C25 5.383 19.3927 0 12.5 0ZM22.9167 22H12.5C6.75625 22 2.08333 17.514 2.08333 12C2.08333 6.486 6.75625 2 12.5 2C18.2437 2 22.9167 6.486 22.9167 12V22ZM14.0625 12C14.0625 12.828 13.3625 13.5 12.5 13.5C11.6375 13.5 10.9375 12.828 10.9375 12C10.9375 11.172 11.6375 10.5 12.5 10.5C13.3625 10.5 14.0625 11.172 14.0625 12ZM19.2708 12C19.2708 12.828 18.5708 13.5 17.7083 13.5C16.8458 13.5 16.1458 12.828 16.1458 12C16.1458 11.172 16.8458 10.5 17.7083 10.5C18.5708 10.5 19.2708 11.172 19.2708 12ZM8.85417 12C8.85417 12.828 8.15417 13.5 7.29167 13.5C6.42917 13.5 5.72917 12.828 5.72917 12C5.72917 11.172 6.42917 10.5 7.29167 10.5C8.15417 10.5 8.85417 11.172 8.85417 12Z" fill="#B0E2EC"/>
</svg>
