<svg width="36" height="35" viewBox="0 0 36 35" fill="none" xmlns="http://www.w3.org/2000/svg">
<rect width="36" height="35" rx="17.5" fill="#DD1122"/>
<g clip-path="url(#clip0_347_12166)">
<path d="M17.8714 17.2608C15.7143 17.1389 15.0429 19.0802 12.9429 20.7213C9.86191 23.1315 10.2095 25.476 11.9191 26.0997C13.6286 26.7233 15.281 24.904 17.1762 25.1009C17.181 25.1009 17.1857 25.1009 17.1952 25.1009C17.2 25.1009 17.2048 25.1009 17.2143 25.1009C19.1143 25.2228 20.4381 27.2907 22.2286 26.9578C24.0191 26.6295 24.7619 24.3741 22.1381 21.4857C20.3476 19.5163 20.0238 17.4906 17.8762 17.2561L17.8714 17.2608Z" fill="#929394"/>
<path d="M12.6875 19.5643C13.808 18.8966 13.8631 16.967 12.8106 15.2543C11.7581 13.5417 9.99654 12.6946 8.87603 13.3623C7.75552 14.03 7.70039 15.9596 8.7529 17.6723C9.80541 19.3849 11.567 20.232 12.6875 19.5643Z" fill="#929394"/>
<path d="M26.7905 19.1769C28.121 17.6634 28.3968 15.7522 27.4066 14.9081C26.4164 14.064 24.535 14.6068 23.2045 16.1203C21.874 17.6339 21.5982 19.5451 22.5884 20.3891C23.5786 21.2332 25.46 20.6905 26.7905 19.1769Z" fill="#929394"/>
<path d="M15.6633 15.6197C17.0382 15.4955 17.9941 13.6911 17.7984 11.5893C17.6026 9.48751 16.3293 7.88434 14.9544 8.00851C13.5795 8.13268 12.6235 9.93716 12.8193 12.0389C13.015 14.1407 14.2883 15.7439 15.6633 15.6197Z" fill="#929394"/>
<path d="M23.745 12.9495C24.298 10.9104 23.6648 8.97297 22.3308 8.62222C20.9969 8.27148 19.4672 9.64021 18.9143 11.6794C18.3613 13.7185 18.9945 15.6559 20.3285 16.0067C21.6624 16.3574 23.1921 14.9887 23.745 12.9495Z" fill="#929394"/>
</g>
<defs>
<clipPath id="clip0_347_12166">
<rect width="20" height="19" fill="white" transform="translate(8 8)"/>
</clipPath>
</defs>
</svg>
