<svg width="16" height="16" viewBox="0 0 16 16" fill="none" xmlns="http://www.w3.org/2000/svg">
<path d="M8.00004 14.6668C4.31814 14.6668 1.33337 11.682 1.33337 8.00016C1.33337 4.31826 4.31814 1.3335 8.00004 1.3335C11.6819 1.3335 14.6667 4.31826 14.6667 8.00016C14.6667 11.682 11.6819 14.6668 8.00004 14.6668ZM8.00004 13.3335C10.9456 13.3335 13.3334 10.9457 13.3334 8.00016C13.3334 5.05464 10.9456 2.66683 8.00004 2.66683C5.05452 2.66683 2.66671 5.05464 2.66671 8.00016C2.66671 10.9457 5.05452 13.3335 8.00004 13.3335ZM7.33337 10.0002H8.66671V11.3335H7.33337V10.0002ZM8.66671 8.90356V9.3335H7.33337V8.3335C7.33337 7.9653 7.63184 7.66683 8.00004 7.66683C8.55231 7.66683 9.00004 7.2191 9.00004 6.66683C9.00004 6.11454 8.55231 5.66683 8.00004 5.66683C7.51491 5.66683 7.11044 6.01232 7.01924 6.47068L5.71158 6.20914C5.92429 5.13962 6.86804 4.3335 8.00004 4.3335C9.28871 4.3335 10.3334 5.37816 10.3334 6.66683C10.3334 7.72383 9.63051 8.6167 8.66671 8.90356Z" fill="#C3C4C6"/>
</svg>
