<svg width="56" height="56" viewBox="0 0 56 56" fill="none" xmlns="http://www.w3.org/2000/svg">
<g filter="url(#filter0_d_239_341)">
<rect x="4" y="4" width="48" height="48" rx="24" fill="#404141" shape-rendering="crispEdges"/>
<g clip-path="url(#clip0_239_341)">
<path d="M39.1211 25.053L31.5358 17.4622C29.5811 15.512 26.4185 15.512 24.4638 17.4622L16.8789 25.053C16.3145 25.6145 15.9977 26.3785 16 27.1749V36.9979C16 38.656 17.343 39.9997 19 39.9997H37C38.657 39.9997 40 38.656 40 36.9979V27.1749C40.0024 26.3785 39.686 25.614 39.1211 25.0526V25.053ZM31 37.9988H25V34.0622C25 32.4042 26.343 31.0604 28 31.0604C29.657 31.0604 31 32.4042 31 34.0622V37.9988ZM37.9999 36.9984C37.9999 37.5509 37.5522 37.9988 37 37.9988H33.0002V34.0622C33.0002 31.2992 30.7614 29.0591 28 29.0591C25.2386 29.0591 22.9999 31.2992 22.9999 34.0622V37.9988H19C18.4478 37.9988 18.0002 37.5509 18.0002 36.9984V27.1754C18.0011 26.9104 18.1066 26.6562 18.2931 26.4681L25.878 18.8801C27.0517 17.7113 28.9483 17.7113 30.122 18.8801L37.7069 26.4705C37.893 26.6576 37.998 26.9109 37.9999 27.1749V36.9979V36.9984Z" fill="#F4F5F7"/>
</g>
</g>
<defs>
<filter id="filter0_d_239_341" x="0" y="0" width="56" height="56" filterUnits="userSpaceOnUse" color-interpolation-filters="sRGB">
<feFlood flood-opacity="0" result="BackgroundImageFix"/>
<feColorMatrix in="SourceAlpha" type="matrix" values="0 0 0 0 0 0 0 0 0 0 0 0 0 0 0 0 0 0 127 0" result="hardAlpha"/>
<feOffset/>
<feGaussianBlur stdDeviation="2"/>
<feComposite in2="hardAlpha" operator="out"/>
<feColorMatrix type="matrix" values="0 0 0 0 0 0 0 0 0 0 0 0 0 0 0 0 0 0 0.1 0"/>
<feBlend mode="normal" in2="BackgroundImageFix" result="effect1_dropShadow_239_341"/>
<feBlend mode="normal" in="SourceGraphic" in2="effect1_dropShadow_239_341" result="shape"/>
</filter>
<clipPath id="clip0_239_341">
<rect width="24" height="24" fill="white" transform="translate(16 16)"/>
</clipPath>
</defs>
</svg>
