<svg width="60" height="58" viewBox="0 0 60 58" fill="none" xmlns="http://www.w3.org/2000/svg">
<g filter="url(#filter0_d_239_380)">
<rect x="4" y="4" width="52.0005" height="49.999" rx="24.9995" fill="#DD1122"/>
<path d="M41.6378 27.549L37.3858 19.587C36.8638 18.608 35.8498 18 34.7398 18H25.2828C24.1748 18 23.1608 18.606 22.6388 19.582L18.3668 27.548C17.8777 28.459 17.8777 29.548 18.3668 30.459L22.6378 38.419C23.1618 39.394 24.1748 39.999 25.2818 39.999H34.7388C35.8488 39.999 36.8628 39.391 37.3848 38.412L41.6368 30.449C42.1218 29.541 42.1228 28.456 41.6378 27.549ZM35.0008 29.999H31.0008V33.999H29.0008V29.999H25.0008V27.999H29.0008V23.999H31.0008V27.999H35.0008V29.999Z" fill="#F4F5F7"/>
</g>
<defs>
<filter id="filter0_d_239_380" x="0" y="0" width="60.0005" height="57.999" filterUnits="userSpaceOnUse" color-interpolation-filters="sRGB">
<feFlood flood-opacity="0" result="BackgroundImageFix"/>
<feColorMatrix in="SourceAlpha" type="matrix" values="0 0 0 0 0 0 0 0 0 0 0 0 0 0 0 0 0 0 127 0" result="hardAlpha"/>
<feOffset/>
<feGaussianBlur stdDeviation="2"/>
<feComposite in2="hardAlpha" operator="out"/>
<feColorMatrix type="matrix" values="0 0 0 0 0 0 0 0 0 0 0 0 0 0 0 0 0 0 0.1 0"/>
<feBlend mode="normal" in2="BackgroundImageFix" result="effect1_dropShadow_239_380"/>
<feBlend mode="normal" in="SourceGraphic" in2="effect1_dropShadow_239_380" result="shape"/>
</filter>
</defs>
</svg>
