<svg width="56" height="54" viewBox="0 0 56 54" fill="none" xmlns="http://www.w3.org/2000/svg">
<g filter="url(#filter0_d_239_339)">
<rect x="4" y="4" width="48.0005" height="45.999" rx="22.9995" fill="#404141"/>
<path d="M39.6378 25.549L35.3858 17.587C34.8638 16.608 33.8498 16 32.7398 16H23.2828C22.1748 16 21.1608 16.606 20.6388 17.582L16.3668 25.548C15.8777 26.459 15.8777 27.548 16.3668 28.459L20.6378 36.419C21.1618 37.394 22.1748 37.999 23.2818 37.999H32.7388C33.8488 37.999 34.8628 37.391 35.3848 36.412L39.6368 28.449C40.1218 27.541 40.1228 26.456 39.6378 25.549ZM37.8738 27.507L33.6218 35.471C33.4468 35.797 33.1088 35.999 32.7388 35.999H23.2818C22.9128 35.999 22.5748 35.797 22.3998 35.473L18.1288 27.514C17.9578 27.195 17.9578 26.813 18.1288 26.494L22.4018 18.526C22.5758 18.201 22.9138 17.999 23.2828 17.999H32.7388C33.1088 17.999 33.4468 18.202 33.6218 18.528L37.8738 26.491C38.0438 26.808 38.0438 27.188 37.8738 27.506V27.507ZM29.0008 25.999H33.0008V27.999H29.0008V31.999H27.0008V27.999H23.0008V25.999H27.0008V21.999H29.0008V25.999Z" fill="#F4F5F7"/>
</g>
<defs>
<filter id="filter0_d_239_339" x="0" y="0" width="56.0005" height="53.999" filterUnits="userSpaceOnUse" color-interpolation-filters="sRGB">
<feFlood flood-opacity="0" result="BackgroundImageFix"/>
<feColorMatrix in="SourceAlpha" type="matrix" values="0 0 0 0 0 0 0 0 0 0 0 0 0 0 0 0 0 0 127 0" result="hardAlpha"/>
<feOffset/>
<feGaussianBlur stdDeviation="2"/>
<feComposite in2="hardAlpha" operator="out"/>
<feColorMatrix type="matrix" values="0 0 0 0 0 0 0 0 0 0 0 0 0 0 0 0 0 0 0.1 0"/>
<feBlend mode="normal" in2="BackgroundImageFix" result="effect1_dropShadow_239_339"/>
<feBlend mode="normal" in="SourceGraphic" in2="effect1_dropShadow_239_339" result="shape"/>
</filter>
</defs>
</svg>
