<svg width="58" height="60" viewBox="0 0 58 60" fill="none" xmlns="http://www.w3.org/2000/svg">
<g filter="url(#filter0_d_239_394)">
<rect x="4" y="4" width="50" height="52" rx="25" fill="#DD1122"/>
<path d="M29 30C32.3137 30 35 27.3137 35 24C35 20.6863 32.3137 18 29 18C25.6863 18 23 20.6863 23 24C23 27.3137 25.6863 30 29 30Z" fill="#F4F5F7"/>
<path d="M29 32C24.0317 32.0055 20.0055 36.0317 20 41C20 41.5523 20.4477 42 21 42H37C37.5522 42 38 41.5523 38 41C37.9945 36.0317 33.9683 32.0055 29 32Z" fill="#F4F5F7"/>
</g>
<defs>
<filter id="filter0_d_239_394" x="0" y="0" width="58" height="60" filterUnits="userSpaceOnUse" color-interpolation-filters="sRGB">
<feFlood flood-opacity="0" result="BackgroundImageFix"/>
<feColorMatrix in="SourceAlpha" type="matrix" values="0 0 0 0 0 0 0 0 0 0 0 0 0 0 0 0 0 0 127 0" result="hardAlpha"/>
<feOffset/>
<feGaussianBlur stdDeviation="2"/>
<feComposite in2="hardAlpha" operator="out"/>
<feColorMatrix type="matrix" values="0 0 0 0 0 0 0 0 0 0 0 0 0 0 0 0 0 0 0.1 0"/>
<feBlend mode="normal" in2="BackgroundImageFix" result="effect1_dropShadow_239_394"/>
<feBlend mode="normal" in="SourceGraphic" in2="effect1_dropShadow_239_394" result="shape"/>
</filter>
</defs>
</svg>
