<svg width="54" height="56" viewBox="0 0 54 56" fill="none" xmlns="http://www.w3.org/2000/svg">
<g filter="url(#filter0_d_239_340)">
<rect x="4" y="4" width="46" height="48" rx="23" fill="#404141"/>
<path d="M27 28C28.1867 28 29.3467 27.6481 30.3334 26.9888C31.3201 26.3295 32.0892 25.3925 32.5433 24.2961C32.9974 23.1997 33.1162 21.9933 32.8847 20.8295C32.6532 19.6656 32.0818 18.5965 31.2426 17.7574C30.4035 16.9182 29.3344 16.3468 28.1705 16.1153C27.0067 15.8838 25.8003 16.0026 24.7039 16.4567C23.6075 16.9109 22.6705 17.6799 22.0112 18.6666C21.3519 19.6533 21 20.8133 21 22C21.0016 23.5908 21.6342 25.116 22.7591 26.2409C23.884 27.3658 25.4092 27.9984 27 28ZM27 18C27.7911 18 28.5645 18.2346 29.2223 18.6741C29.8801 19.1136 30.3928 19.7384 30.6955 20.4693C30.9983 21.2002 31.0775 22.0044 30.9231 22.7804C30.7688 23.5563 30.3878 24.269 29.8284 24.8284C29.269 25.3878 28.5563 25.7688 27.7804 25.9231C27.0044 26.0775 26.2002 25.9983 25.4693 25.6955C24.7384 25.3928 24.1136 24.8801 23.6741 24.2223C23.2346 23.5645 23 22.7911 23 22C23 20.9391 23.4214 19.9217 24.1716 19.1716C24.9217 18.4214 25.9391 18 27 18Z" fill="#F4F5F7"/>
<path d="M27 30C24.6139 30.0026 22.3262 30.9517 20.639 32.639C18.9517 34.3262 18.0026 36.6139 18 39C18 39.2652 18.1054 39.5196 18.2929 39.7071C18.4804 39.8946 18.7348 40 19 40C19.2652 40 19.5196 39.8946 19.7071 39.7071C19.8946 39.5196 20 39.2652 20 39C20 37.1435 20.7375 35.363 22.0503 34.0503C23.363 32.7375 25.1435 32 27 32C28.8565 32 30.637 32.7375 31.9497 34.0503C33.2625 35.363 34 37.1435 34 39C34 39.2652 34.1054 39.5196 34.2929 39.7071C34.4804 39.8946 34.7348 40 35 40C35.2652 40 35.5196 39.8946 35.7071 39.7071C35.8946 39.5196 36 39.2652 36 39C35.9974 36.6139 35.0483 34.3262 33.361 32.639C31.6738 30.9517 29.3861 30.0026 27 30Z" fill="#F4F5F7"/>
</g>
<defs>
<filter id="filter0_d_239_340" x="0" y="0" width="54" height="56" filterUnits="userSpaceOnUse" color-interpolation-filters="sRGB">
<feFlood flood-opacity="0" result="BackgroundImageFix"/>
<feColorMatrix in="SourceAlpha" type="matrix" values="0 0 0 0 0 0 0 0 0 0 0 0 0 0 0 0 0 0 127 0" result="hardAlpha"/>
<feOffset/>
<feGaussianBlur stdDeviation="2"/>
<feComposite in2="hardAlpha" operator="out"/>
<feColorMatrix type="matrix" values="0 0 0 0 0 0 0 0 0 0 0 0 0 0 0 0 0 0 0.1 0"/>
<feBlend mode="normal" in2="BackgroundImageFix" result="effect1_dropShadow_239_340"/>
<feBlend mode="normal" in="SourceGraphic" in2="effect1_dropShadow_239_340" result="shape"/>
</filter>
</defs>
</svg>
