<svg width="16" height="16" viewBox="0 0 16 16" fill="none" xmlns="http://www.w3.org/2000/svg">
<g clip-path="url(#clip0_840_450)">
<path d="M5.79096 2.66689L7.52871 0.929152C7.78904 0.668798 8.21118 0.668798 8.47151 0.929152L10.2092 2.66689H12.6668C13.035 2.66689 13.3334 2.96537 13.3334 3.33355V5.79108L15.0712 7.52883C15.3315 7.78917 15.3315 8.2113 15.0712 8.47163L13.3334 10.2094V12.6669C13.3334 13.0351 13.035 13.3336 12.6668 13.3336H10.2092L8.47151 15.0713C8.21118 15.3316 7.78904 15.3316 7.52871 15.0713L5.79096 13.3336H3.33343C2.96524 13.3336 2.66676 13.0351 2.66676 12.6669V10.2094L0.92903 8.47163C0.668676 8.2113 0.668676 7.78917 0.92903 7.52883L2.66676 5.79108V3.33355C2.66676 2.96537 2.96524 2.66689 3.33343 2.66689H5.79096ZM4.0001 4.00022V6.34337L2.34324 8.00023L4.0001 9.6571V12.0002H6.34324L8.00011 13.6571L9.65698 12.0002H12.0001V9.6571L13.657 8.00023L12.0001 6.34337V4.00022H9.65698L8.00011 2.34337L6.34324 4.00022H4.0001ZM8.00011 10.6669C6.52734 10.6669 5.33343 9.47297 5.33343 8.00023C5.33343 6.52746 6.52734 5.33355 8.00011 5.33355C9.47284 5.33355 10.6668 6.52746 10.6668 8.00023C10.6668 9.47297 9.47284 10.6669 8.00011 10.6669ZM8.00011 9.33356C8.73651 9.33356 9.33344 8.73663 9.33344 8.00023C9.33344 7.26383 8.73651 6.6669 8.00011 6.6669C7.26371 6.6669 6.66678 7.26383 6.66678 8.00023C6.66678 8.73663 7.26371 9.33356 8.00011 9.33356Z" fill="#C3C4C6"/>
</g>
<defs>
<clipPath id="clip0_840_450">
<rect width="16" height="16" fill="white"/>
</clipPath>
</defs>
</svg>
