<svg width="106" height="106" viewBox="0 0 106 106" fill="none" xmlns="http://www.w3.org/2000/svg">
<g clip-path="url(#clip0_682_2750)">
<path d="M106 53.0006C106 55.4128 105.84 57.7861 105.525 60.1134C102.954 79.2955 90.1198 95.2278 72.7269 102.206C66.6299 104.655 59.9728 106.001 52.9994 106.001C23.7288 106 0 82.2712 0 53.0006C0 23.73 23.7288 0 53.0006 0C82.2725 0 106.001 23.7288 106.001 53.0006H106Z" fill="#DD1122"/>
<path d="M105.525 60.1122C102.954 79.2943 90.1198 95.2266 72.7269 102.205L21.9651 51.4431C42.8926 15.6257 90.4459 45.0333 90.4459 45.0333L105.526 60.1135L105.525 60.1122Z" fill="#B10E1B"/>
<path d="M63.1316 72.3463L52.9994 82.4786L42.8672 72.3463C45.4599 69.7536 49.0418 68.1499 52.9994 68.1499C56.957 68.1499 60.5389 69.7536 63.1316 72.3463Z" fill="#F4F5F7"/>
<path d="M66.128 51.4067C61.968 49.6466 57.551 48.7545 53.0006 48.7545C48.4503 48.7545 44.0332 49.6466 39.8732 51.4067C35.8562 53.1061 32.2513 55.5364 29.1555 58.6322L35.5653 65.042C37.832 62.7765 40.4696 60.9983 43.4041 59.7559C46.4405 58.471 49.6697 57.8201 53.0006 57.8201C56.3316 57.8201 59.5607 58.471 62.5971 59.7559C65.5329 60.9983 68.1705 62.7765 70.436 65.042L76.8457 58.6322C73.7499 55.5364 70.1438 53.1061 66.128 51.4067Z" fill="#F4F5F7"/>
<path d="M73.6142 33.6853C67.082 30.9228 60.1462 29.5216 52.9994 29.5216C45.8527 29.5216 38.9168 30.9228 32.3846 33.6853C26.0779 36.3532 20.4148 40.1702 15.5529 45.0321L21.9627 51.4419C25.9942 47.4091 30.6888 44.2442 35.9156 42.0333C41.3241 39.746 47.0709 38.5859 52.9982 38.5859C58.9255 38.5859 64.6723 39.746 70.0808 42.0333C75.3063 44.2442 80.0021 47.4091 84.0337 51.4419L90.4435 45.0321C85.5816 40.1702 79.9185 36.352 73.6118 33.6853H73.6142Z" fill="#F4F5F7"/>
</g>
<defs>
<clipPath id="clip0_682_2750">
<rect width="106" height="106" fill="white"/>
</clipPath>
</defs>
</svg>
